# AST/ASF file generated using VICON BodyLanguage
# -----------------------------------------------
:version 1.10
:name VICON
:units
  mass 1.0
  length 0.1
  angle deg
:documentation
   .ast/.asf automatically generated from VICON data using
   VICON BodyBuilder and BodyLanguage model FULLBODY5.MOD
:root
   order TX TY TZ RZ RY RX
   axis XYZ
   position 0 0 0  
   orientation 0 -0 0 
:bonedata
  begin
     id 1 
     name lhipjoint
     direction 0.961525 -0.229516 0.150972 
     length 0.502153 
     axis 0 -0 0  XYZ
  end
  begin
     id 2 
     name lfemur
     direction 0.173648 -0.984808 0  
     length 1.83052  
     axis 0 -0 10  XYZ
    dof rx ry rz
    limits (-180.0 180.0)
           (-180.0 180.0)
           (-180.0 180.0)
  end
  begin
     id 3 
     name ltibia
     direction 0.173629 -0.984811 0   
     length 1.50296   
     axis 0 -0 10   XYZ
    dof rx ry rz
    limits (-180.0 180.0)
           (-180.0 180.0)
           (-180.0 180.0)
  end
  begin
     id 4 
     name lfoot
     direction 7.59329e-012 -0.227408 0.9738   
     length 0.574743   
     axis -90 -1.73656e-015 10   XYZ
    dof rx ry rz
    limits (-180.0 180.0)
           (-180.0 180.0)
           (-180.0 180.0)
  end
  begin
     id 5 
     name ltoes
     direction 7.79885e-012 -4.41741e-011 1   
     length 0.28489   
     axis -90 -1.73656e-015 10   XYZ
    dof rx ry rz
    limits (-180.0 180.0)
           (-180.0 180.0)
           (-180.0 180.0)
  end
  begin
     id 6 
     name rhipjoint
     direction -0.970498 -0.201437 0.132502   
     length 0.572149  
     axis 0 -0 0  XYZ 
  end
  begin
     id 7 
     name rfemur
     direction -0.173648 -0.984808 0   
     length 1.71866   
     axis 0 -0 -10   XYZ
    dof rx ry rz
    limits (-180.0 180.0)
           (-180.0 180.0)
           (-180.0 180.0)
  end
  begin
     id 8 
     name rtibia
     direction -0.173624 -0.984812 0   
     length 1.42623   
     axis 0 -0 -10   XYZ
    dof rx ry rz
    limits (-180.0 180.0)
           (-180.0 180.0)
           (-180.0 180.0)
 end
 begin
     id 9 
     name rfoot
     direction -7.12931e-012 -0.404275 0.914637   
     length 0.524692  
     axis -90 1.73656e-015 -10   XYZ
    dof rx ry rz
    limits (-180.0 180.0)
           (-180.0 180.0)
           (-180.0 180.0)
  end
  begin
     id 10 
     name rtoes
     direction -7.79289e-012 -4.41454e-011 1   
     length 0.254983   
     axis -90 1.73656e-015 -10   XYZ
    dof rx ry rz
    limits (-180.0 180.0)
           (-180.0 180.0)
           (-180.0 180.0)
  end
  begin
     id 11 
     name lowerback
     direction -0.0214086 0.993738 0.109665   
     length 0.417614   
     axis 0 -0 0   XYZ
    dof rx ry rz
    limits (-180.0 180.0)
           (-180.0 180.0)
           (-180.0 180.0)
  end
  begin
     id 12 
     name upperback
     direction 8.15962e-005 0.99996 0.00893412   
     length 0.419234   
     axis 0 -0 0   XYZ
    dof rx ry rz
    limits (-180.0 180.0)
           (-180.0 180.0)
           (-180.0 180.0)
  end
  begin
     id 13 
     name thorax
     direction 0.00826031 0.999067 -0.0423848   
     length 0.424697   
     axis 0 -0 0   XYZ
    dof rx ry rz
    limits (-180.0 180.0)
           (-180.0 180.0)
           (-180.0 180.0)
  end
  begin
     id 14 
     name lowerneck
     direction -0.0196262 0.994272 -0.105058   
     length 0.355877   
     axis 0 -0 0   XYZ
    dof rx ry rz
    limits (-180.0 180.0)
           (-180.0 180.0)
           (-180.0 180.0)
  end
  begin
     id 15 
     name upperneck
     direction 0.000117372 0.999091 0.0426261   
     length 0.351054   
     axis 0 -0 0   XYZ
    dof rx ry rz
    limits (-180.0 180.0)
           (-180.0 180.0)
           (-180.0 180.0)
  end
  begin
     id 16
     name head
     direction 0.00157618 0.999651 0.0263619  
     length 0.374844  
     axis 0 -0 0   XYZ
    dof rx ry rz
    limits (-180.0 180.0)
           (-180.0 180.0)
           (-180.0 180.0)
  end
  begin
     id 17 
     name lshoulderjoint
     direction 0.981627 -0.190809 0  
     length 0.701763  
     axis 0 -0 -11   XYZ
    dof rx ry rz
    limits (-180.0 180.0)
           (-180.0 180.0)
           (-180.0 180.0)
  end
  begin
     id 18 
     name lhumerus
     direction 0.48481 -0.87462 -1.80676e-026   
     length 0.994704   
     axis -180 5.14477e-009 -151   XYZ
    dof rx ry rz
    limits (-180.0 180.0)
           (-180.0 180.0)
           (-180.0 180.0)
  end
  begin
     id 19
     name lradius
     direction 0.48481 -0.87462 -3.2569e-026   
     length 0.617638   
     axis -180 5.14477e-009 -151   XYZ
    dof rx ry rz
    limits (-180.0 180.0)
           (-180.0 180.0)
           (-180.0 180.0)
  end
  begin
     id 20
     name lwrist
     direction 0.48481 -0.87462 -6.73202e-026   
     length 0.308819   
     axis -180 5.14477e-009 -151   XYZ
    dof rx ry rz
    limits (-180.0 180.0)
           (-180.0 180.0)
           (-180.0 180.0)
  end
  begin
     id 21 
     name lhand
     direction 0.478366 -0.863761 -0.158376   
     length 0.291656   
     axis -180 5.14477e-009 -151   XYZ
    dof rx ry rz
    limits (-180.0 180.0)
           (-180.0 180.0)
           (-180.0 180.0)
  end
  begin
     id 22 
     name rshoulderjoint
     direction -0.981627 -0.190809 0   
     length 0.66654  
     axis 0 -0 11   XYZ 
    dof rx ry rz
    limits (-180.0 180.0)
           (-180.0 180.0)
           (-180.0 180.0)
  end
  begin
     id 23 
     name rhumerus
     direction -0.48481 -0.87462 1.77576e-026  
     length 1.15089   
     axis 180 5.14477e-009 151   XYZ
    dof rx ry rz
    limits (-180.0 180.0)
           (-180.0 180.0)
           (-180.0 180.0)
  end
  begin
     id 24 
     name rradius
     direction -0.48481 -0.87462 3.79421e-026   
     length 0.613887   
     axis 180 5.14477e-009 151   XYZ
    dof rx ry rz
    limits (-180.0 180.0)
           (-180.0 180.0)
           (-180.0 180.0)
  end
  begin
     id 25 
     name rwrist
     direction -0.48481 -0.87462 5.43623e-026   
     length 0.306944   
     axis 180 5.14477e-009 151   XYZ
    dof rx ry rz
    limits (-180.0 180.0)
           (-180.0 180.0)
           (-180.0 180.0)
  end
  begin
     id 26
     name rhand
     direction -0.479273 -0.864638 -0.150661   
     length 0.306429   
     axis 180 5.14477e-009 151   XYZ
    dof rx ry rz
    limits (-180.0 180.0)
           (-180.0 180.0)
           (-180.0 180.0)
  end
:hierarchy
  begin
    root lhipjoint rhipjoint lowerback 
    lhipjoint lfemur
    lfemur ltibia
    ltibia lfoot
    lfoot ltoes
    rhipjoint rfemur
    rfemur rtibia
    rtibia rfoot
    rfoot rtoes
    lowerback upperback
    upperback thorax
    thorax lowerneck lshoulderjoint rshoulderjoint
    lowerneck upperneck
    upperneck head
    lshoulderjoint lhumerus
    lhumerus lradius
    lradius lwrist
    lwrist lhand
    rshoulderjoint rhumerus
    rhumerus rradius
    rradius rwrist
    rwrist rhand
  end

:FULLY-SPECIFIED
:DEGREES
81
root 0.451718 3.58429 -0.298977 103.399 -75.5498 98.9767
lowerback -12.6999 -0.687047 -4.72332
upperback -2.76845 -0.405843 -0.0170786
thorax 4.23485 -0.300554 2.57964
lowerneck 13.7462 -0.147619 -2.63755
upperneck -8.60119 -0.299287 3.4075
head -4.81105 -0.287733 1.51264
rshoulderjoint 3.00851 -4.66125 -43.8922
rhumerus 9.43028 -70.414 -32.1925
rradius 50.5814 8.90555e-014 2.8625e-014
rwrist -1.95804e-014 23.9779 -1.02688e-013
rhand 26.5434 -21.0677 29.8144
lshoulderjoint 5.97304 12.3588 37.0513
lhumerus 21.6368 53.0016 34.3696
lradius 49.8047 -2.22639e-013 6.36111e-014
lwrist -1.22941e-013 -10.5551 3.97942e-013
lhand 40.4565 10.381 -9.99003
rfemur -16.0441 0.879284 9.86753
rtibia 43.5583 5.96354e-015 2.38542e-015
rfoot -7.93448 9.45428 -12.1815
rtoes 1.94014e-013 1.28812e-013 -3.97569e-014
lfemur -23.8112 -9.35901 -16.31
ltibia 6.11773 7.95139e-015 -1.19271e-014
lfoot 2.31529 -3.6867 15.5494
ltoes -7.74763e-014 5.82812e-014 4.6118e-014
82
root 0.474668 3.57984 -0.303391 104.147 -75.5537 99.6794
lowerback -12.6838 -0.632567 -4.72994
upperback -2.75081 -0.331288 -0.0473486
thorax 4.23848 -0.263866 2.56368
lowerneck 13.7288 -0.120417 -2.73558
upperneck -8.66819 -0.273417 3.45819
head -4.82961 -0.275045 1.54264
rshoulderjoint 2.99965 -4.64087 -43.9293
rhumerus 10.3304 -70.6894 -32.9451
rradius 50.2677 -1.30403e-013 -1.39944e-013
rwrist -4.91201e-013 23.8508 2.21693e-013
rhand 26.6558 -21.0598 29.4843
lshoulderjoint 5.95213 12.3089 37.0616
lhumerus 22.7001 53.6206 35.1139
lradius 49.2102 1.68569e-013 1.65389e-013
lwrist -1.79899e-013 -9.72171 -8.38993e-014
lhand 40.2698 9.5314 -9.55215
rfemur -15.5323 1.14766 9.89636
rtibia 42.0419 -3.18055e-015 0
rfoot -8.42143 9.49258 -11.6408
rtoes -7.95139e-014 -4.45278e-014 -9.54166e-015
lfemur -24.5668 -9.22132 -16.2147
ltibia 7.02181 -1.27222e-014 1.59028e-014
lfoot 2.18467 -3.47216 15.6373
ltoes 1.69961e-014 -5.64611e-014 8.74653e-015
83
root 0.498383 3.57512 -0.307747 104.921 -75.5608 100.353
lowerback -12.642 -0.586801 -4.77857
upperback -2.7377 -0.263955 -0.087916
thorax 4.22391 -0.230724 2.55947
lowerneck 13.6835 -0.103165 -2.82881
upperneck -8.6831 -0.265502 3.46407
head -4.82689 -0.267903 1.55881
rshoulderjoint 2.97299 -4.59392 -43.9608
rhumerus 11.3314 -70.9859 -33.754
rradius 49.9834 -1.00187e-013 -7.87187e-014
rwrist -4.49007e-013 23.4631 2.28404e-013
rhand 26.9761 -20.7922 28.9846
lshoulderjoint 5.91223 12.2165 37.0762
lhumerus 23.5576 54.0873 35.6772
lradius 48.6018 1.33583e-013 1.74931e-013
lwrist -3.60074e-013 -9.9738 -2.58349e-014
lhand 39.9374 9.95307 -9.19326
rfemur -15.0358 1.47795 9.87225
rtibia 40.4965 -2.38542e-015 -7.15625e-015
rfoot -8.70471 9.53839 -11.0776
rtoes -1.36764e-013 -2.18266e-013 8.90555e-014
lfemur -25.2464 -9.09078 -16.1729
ltibia 7.75084 2.22639e-014 3.10104e-014
lfoot 2.14247 -3.19206 15.728
ltoes 1.55947e-013 -1.04244e-013 -7.95139e-014
84
root 0.522873 3.57034 -0.312319 105.681 -75.5732 100.984
lowerback -12.5751 -0.538131 -4.86522
upperback -2.69396 -0.186571 -0.139405
thorax 4.22693 -0.193363 2.56679
lowerneck 13.5742 -0.082865 -2.93201
upperneck -8.73326 -0.250101 3.49544
head -4.82488 -0.258008 1.58388
rshoulderjoint 3.00434 -4.64248 -43.9612
rhumerus 12.6338 -71.2489 -34.8096
rradius 49.6873 4.6118e-014 -2.94201e-014
rwrist -3.18534e-013 23.2751 1.90428e-014
rhand 27.2362 -20.7315 28.4251
lshoulderjoint 5.88302 12.1616 37.0637
lhumerus 24.808 54.8139 36.6087
lradius 47.9771 0 1.08139e-013
lwrist -4.69148e-013 -8.84771 7.08149e-014
lhand 39.9582 8.82932 -8.47498
rfemur -14.5674 1.87234 9.82799
rtibia 38.932 1.19271e-015 -7.15625e-015
rfoot -8.86502 9.59683 -10.6719
rtoes -1.59028e-013 -8.3092e-014 2.38542e-014
lfemur -25.8796 -8.96796 -16.151
ltibia 8.37088 -1.59028e-014 1.59028e-014
lfoot 2.15237 -2.91604 15.7976
ltoes 1.08139e-013 -8.46264e-014 3.02153e-014
85
root 0.548048 3.56519 -0.317129 106.347 -75.5588 101.521
lowerback -12.5463 -0.518003 -4.96811
upperback -2.67534 -0.145982 -0.164334
thorax 4.22733 -0.174488 2.60519
lowerneck 13.5325 -0.0420884 -3.06634
upperneck -8.77074 -0.218818 3.49019
head -4.83053 -0.237215 1.60157
rshoulderjoint 2.98151 -4.58179 -44.1049
rhumerus 13.8168 -71.5612 -35.8631
rradius 49.4135 -1.27222e-013 7.15625e-014
rwrist 4.3976e-013 22.6246 1.24046e-013
rhand 27.7583 -20.231 27.6935
lshoulderjoint 5.84143 12.0378 37.1301
lhumerus 26.0396 55.7084 37.6881
lradius 47.3413 1.52667e-013 -1.74931e-013
lwrist 4.44623e-013 -7.80232 -3.98074e-013
lhand 40.0422 7.7203 -7.59352
rfemur -14.1163 2.39399 9.79293
rtibia 37.4007 3.97569e-016 1.11319e-014
rfoot -9.38224 9.2605 -10.7304
rtoes 1.52667e-013 9.02482e-014 -2.70347e-014
lfemur -26.5208 -8.86149 -16.1191
ltibia 8.9074 -1.27222e-014 -5.56597e-015
lfoot 2.197 -2.68179 15.8685
ltoes -1.32291e-013 3.28616e-014 3.26007e-014
86
root 0.573941 3.5598 -0.321961 106.947 -75.4917 101.979
lowerback -12.5361 -0.520245 -5.07565
upperback -2.65861 -0.133668 -0.190456
thorax 4.23822 -0.170007 2.64041
lowerneck 13.4032 0.022013 -3.20142
upperneck -8.77061 -0.155324 3.47902
head -4.81132 -0.199481 1.61435
rshoulderjoint 2.94083 -4.50103 -44.2094
rhumerus 15.075 -71.829 -36.9387
rradius 49.1547 -1.09729e-013 -5.08889e-014
rwrist -4.5018e-015 21.9837 1.02041e-013
rhand 28.2498 -19.7626 26.9604
lshoulderjoint 5.84182 12.0215 37.1619
lhumerus 27.3003 56.5097 38.6961
lradius 46.7127 2.44903e-013 -7.31528e-014
lwrist 1.28933e-013 -6.83389 -4.48464e-013
lhand 40.1023 6.84178 -6.63183
rfemur -13.689 2.86593 9.76431
rtibia 35.929 -2.18663e-015 3.97569e-015
rfoot -10.4827 9.34344 -11.0222
rtoes -4.77083e-014 -2.14687e-014 -1.59028e-014
lfemur -27.1849 -8.76278 -16.0888
ltibia 9.3543 -2.38542e-014 3.97569e-015
lfoot 2.25686 -2.30937 15.9596
ltoes -4.62174e-014 -2.48481e-014 2.8625e-014
87
root 0.600837 3.55412 -0.327371 107.402 -75.392 102.318
lowerback -12.5132 -0.520057 -5.16009
upperback -2.66033 -0.123098 -0.21596
thorax 4.22282 -0.165402 2.66294
lowerneck 13.3154 0.0805143 -3.34484
upperneck -8.8148 -0.0979846 3.49288
head -4.81252 -0.166522 1.63731
rshoulderjoint 2.9348 -4.4703 -44.335
rhumerus 16.4147 -71.9967 -38.0687
rradius 48.8915 1.27222e-014 1.48691e-013
rwrist 5.56115e-013 21.6066 -3.50645e-014
rhand 28.5483 -19.526 26.3458
lshoulderjoint 5.82513 11.9555 37.2196
lhumerus 28.6826 57.3939 39.8495
lradius 46.1037 1.39944e-013 -3.11694e-013
lwrist 1.6706e-013 -5.87108 -6.20281e-013
lhand 40.1432 5.94957 -5.59543
rfemur -13.2889 3.38872 9.79954
rtibia 34.5073 6.36111e-015 -4.77083e-015
rfoot -11.7917 9.73763 -11.4109
rtoes -1.08139e-013 9.66093e-014 -8.5875e-014
lfemur -27.8895 -8.67835 -16.0078
ltibia 9.75695 -2.06736e-014 -2.8625e-014
lfoot 2.36358 -2.00016 16.0286
ltoes 8.18993e-014 6.69159e-014 9.14409e-014
88
root 0.628304 3.54786 -0.332691 107.715 -75.2741 102.47
lowerback -12.4944 -0.529646 -5.25806
upperback -2.65006 -0.121349 -0.277404
thorax 4.2229 -0.165754 2.65392
lowerneck 13.1215 0.128717 -3.4445
upperneck -8.83533 -0.0446566 3.49794
head -4.78893 -0.135641 1.65021
rshoulderjoint 2.95076 -4.48579 -44.3872
rhumerus 17.8773 -72.1011 -39.2754
rradius 48.6565 -5.88403e-014 4.05521e-014
rwrist 8.74456e-015 21.2469 1.3778e-013
rhand 28.8016 -19.3131 25.8376
lshoulderjoint 5.84418 11.9698 37.2675
lhumerus 30.5138 58.3471 41.384
lradius 45.4835 1.17681e-013 -9.54166e-014
lwrist -1.43559e-014 -4.4588 -2.9669e-013
lhand 40.201 4.52403 -4.46874
rfemur -12.9698 3.71649 9.79745
rtibia 33.1786 2.48481e-015 -4.77083e-015
rfoot -13.0592 10.0283 -11.6254
rtoes -3.81667e-014 -5.20816e-014 -1.11319e-014
lfemur -28.6075 -8.63299 -15.963
ltibia 10.1084 -6.36111e-015 7.95139e-016
lfoot 2.46836 -1.62104 16.107
ltoes 1.36366e-013 -4.00675e-014 5.00937e-014
89
root 0.65648 3.54128 -0.338327 107.868 -75.1425 102.443
lowerback -12.5067 -0.559583 -5.35623
upperback -2.65106 -0.145256 -0.351258
thorax 4.23044 -0.179114 2.62783
lowerneck 12.9977 0.188713 -3.55777
upperneck -8.87048 0.0214934 3.51085
head -4.78189 -0.0990702 1.66722
rshoulderjoint 2.89854 -4.38867 -44.4914
rhumerus 19.2617 -72.3508 -40.4792
rradius 48.4384 1.31993e-013 1.77316e-013
rwrist 4.15907e-013 20.8682 -1.0637e-013
rhand 29.0936 -19.001 25.3411
lshoulderjoint 5.85613 11.92 37.408
lhumerus 32.5134 59.4401 43.192
lradius 44.8757 -2.38542e-013 -8.5875e-014
lwrist 1.94284e-013 -3.01967 2.29318e-013
lhand 40.2323 3.0706 -3.23589
rfemur -12.7631 3.72335 9.81833
rtibia 31.9476 4.67144e-015 -2.38542e-015
rfoot -14.3091 10.4775 -11.7678
rtoes 6.04305e-014 9.42239e-014 6.36111e-015
lfemur -29.333 -8.64161 -15.9008
ltibia 10.391 1.74931e-014 -1.11319e-014
lfoot 2.63387 -1.26875 16.1933
ltoes -6.1822e-014 6.30396e-014 4.77083e-014
90
root 0.685534 3.53442 -0.34391 107.762 -74.9994 102.201
lowerback -12.4911 -0.586564 -5.37511
upperback -2.64916 -0.176517 -0.429925
thorax 4.22629 -0.194767 2.55082
lowerneck 12.8156 0.239858 -3.72072
upperneck -8.94369 0.0771479 3.58857
head -4.77675 -0.0697407 1.71343
rshoulderjoint 2.88488 -4.34792 -44.6123
rhumerus 20.741 -72.5663 -41.8029
rradius 48.2284 -6.20208e-014 -7.39479e-014
rwrist -7.20024e-014 20.6238 2.50628e-014
rhand 29.3044 -18.8222 24.9516
lshoulderjoint 5.89282 11.9345 37.5244
lhumerus 34.5175 60.1689 44.9193
lradius 44.2879 1.04958e-013 7.95139e-014
lwrist -1.17842e-013 -3.00396 -4.7774e-014
lhand 40.17 3.35667 -2.15834
rfemur -12.6063 3.46658 9.90726
rtibia 30.7876 2.98177e-015 3.18055e-015
rfoot -15.5333 10.5977 -11.9029
rtoes 7.95139e-014 2.48481e-014 -1.74931e-014
lfemur -30.0773 -8.69688 -15.7789
ltibia 10.6142 9.54166e-015 2.38542e-015
lfoot 2.84466 -0.863049 16.3074
ltoes 6.75868e-015 -3.77691e-015 -1.59028e-014
